<svg width="1920" height="446" viewBox="0 0 1920 446" fill="none" xmlns="http://www.w3.org/2000/svg">
<g opacity="0.16">
<path fill-rule="evenodd" clip-rule="evenodd" d="M1847.67 -409.69C2013.46 -432.903 2170.69 -648.847 2308.64 -554.096C2440.27 -463.684 2329.4 -251.687 2307.96 -93.5374C2290.86 32.5852 2270.85 152.279 2198.67 257.145C2105.63 392.303 2009.07 605.195 1847.67 575.128C1680.23 543.936 1731.58 262.97 1607 146.925C1471.54 20.747 1162.93 88.5144 1129.8 -93.5374C1098.32 -266.531 1338.99 -369.954 1500.03 -440.875C1610.71 -489.617 1727.89 -392.918 1847.67 -409.69Z" fill="url(#paint0_linear_5050_380)"/>
<path fill-rule="evenodd" clip-rule="evenodd" d="M1913.37 -528.947C2058.38 -549.228 2195.91 -737.9 2316.58 -655.115C2431.71 -576.122 2334.73 -390.9 2315.98 -252.724C2301.03 -142.53 2283.53 -37.9537 2220.38 53.6686C2139 171.756 2054.55 357.761 1913.37 331.491C1766.91 304.238 1811.83 58.7571 1702.85 -42.6317C1584.37 -152.873 1314.43 -93.6648 1285.45 -252.724C1257.91 -403.869 1468.43 -494.23 1609.29 -556.193C1706.1 -598.779 1808.6 -514.294 1913.37 -528.947Z" fill="url(#paint1_linear_5050_380)"/>
</g>
<g opacity="0.16">
<path fill-rule="evenodd" clip-rule="evenodd" d="M238.327 845.69C72.5446 868.903 -84.6897 1084.85 -222.638 990.096C-354.268 899.684 -243.396 687.687 -221.957 529.537C-204.86 403.415 -184.852 283.721 -112.665 178.855C-19.6281 43.6967 76.9258 -169.195 238.327 -139.128C405.768 -107.936 354.416 173.03 479.001 289.075C614.463 415.253 923.066 347.486 956.197 529.537C987.678 702.531 747.005 805.954 585.97 876.875C475.294 925.617 358.107 828.918 238.327 845.69Z" fill="url(#paint2_linear_5050_380)"/>
<path fill-rule="evenodd" clip-rule="evenodd" d="M140.628 974.947C-4.38147 995.228 -141.914 1183.9 -262.577 1101.11C-377.714 1022.12 -280.734 836.9 -261.981 698.724C-247.027 588.53 -229.526 483.954 -166.384 392.331C-85.0048 274.244 -0.54923 88.2393 140.628 114.509C287.089 141.762 242.171 387.243 351.145 488.632C469.634 598.873 739.569 539.665 768.548 698.724C796.085 849.869 585.568 940.23 444.711 1002.19C347.903 1044.78 245.399 960.294 140.628 974.947Z" fill="url(#paint3_linear_5050_380)"/>
</g>
<defs>
<linearGradient id="paint0_linear_5050_380" x1="1750" y1="-189.5" x2="1749.5" y2="578" gradientUnits="userSpaceOnUse">
<stop stop-color="white" stop-opacity="0.24"/>
<stop offset="1" stop-color="white" stop-opacity="0.4"/>
</linearGradient>
<linearGradient id="paint1_linear_5050_380" x1="1827.5" y1="-676" x2="1827.5" y2="334" gradientUnits="userSpaceOnUse">
<stop stop-color="white" stop-opacity="0"/>
<stop offset="1" stop-color="white"/>
</linearGradient>
<linearGradient id="paint2_linear_5050_380" x1="336" y1="625.5" x2="336.5" y2="-142" gradientUnits="userSpaceOnUse">
<stop stop-color="white" stop-opacity="0.24"/>
<stop offset="1" stop-color="white" stop-opacity="0.4"/>
</linearGradient>
<linearGradient id="paint3_linear_5050_380" x1="226.5" y1="1122" x2="226.5" y2="112" gradientUnits="userSpaceOnUse">
<stop stop-color="white" stop-opacity="0"/>
<stop offset="1" stop-color="white"/>
</linearGradient>
</defs>
</svg>
