<svg xmlns="http://www.w3.org/2000/svg" width="273" height="204" viewBox="0 0 273 204" fill="none"><path opacity="0.08" d="M247.406 -35H179.156C164.76 -35 153.562 -23.2634 153.562 -9.39286V58.8929C153.562 73.2969 164.76 84.5 179.156 84.5H221.812V118.643C221.812 137.848 206.35 152.786 187.688 152.786H183.422C175.957 152.786 170.625 158.654 170.625 165.589V191.196C170.625 198.665 175.957 204 183.422 204H187.688C234.609 204 273 166.123 273 118.643V-9.39286C273 -23.2634 261.27 -35 247.406 -35ZM93.8438 -35H25.5938C11.1973 -35 0 -23.2634 0 -9.39286V58.8929C0 73.2969 11.1973 84.5 25.5938 84.5H68.25V118.643C68.25 137.848 52.7871 152.786 34.125 152.786H29.8594C22.3945 152.786 17.0625 158.654 17.0625 165.589V191.196C17.0625 198.665 22.3945 204 29.8594 204H34.125C81.0469 204 119.438 166.123 119.438 118.643V-9.39286C119.438 -23.2634 107.707 -35 93.8438 -35Z" fill="#6852F4"></path></svg>