<svg width="1920" height="580" viewBox="0 0 1920 580" fill="none" xmlns="http://www.w3.org/2000/svg">
<g opacity="0.08">
<path fill-rule="evenodd" clip-rule="evenodd" d="M2006.69 -195.673C2029.9 -361.455 2245.85 -518.69 2151.1 -656.638C2060.68 -788.268 1848.69 -677.396 1690.54 -655.957C1564.41 -638.86 1444.72 -618.852 1339.85 -546.666C1204.7 -453.628 991.805 -357.074 1021.87 -195.673C1053.06 -28.2317 1334.03 -79.5837 1450.08 45.0006C1576.25 180.463 1508.49 489.066 1690.54 522.196C1863.53 553.678 1966.95 313.005 2037.87 151.97C2086.62 41.2945 1989.92 -75.8933 2006.69 -195.673Z" fill="url(#paint0_linear_5050_373)"/>
<path fill-rule="evenodd" clip-rule="evenodd" d="M2022.95 -312.372C2043.23 -457.381 2231.9 -594.914 2149.11 -715.577C2070.12 -830.714 1884.9 -733.734 1746.72 -714.982C1636.53 -700.027 1531.95 -682.526 1440.33 -619.385C1322.24 -538.005 1136.24 -453.549 1162.51 -312.372C1189.76 -165.911 1435.24 -210.829 1536.63 -101.855C1646.87 16.6339 1587.66 286.569 1746.72 315.548C1897.87 343.085 1988.23 132.568 2050.19 -8.28879C2092.78 -105.097 2008.29 -207.601 2022.95 -312.372Z" fill="url(#paint1_linear_5050_373)"/>
</g>
<g opacity="0.08">
<path fill-rule="evenodd" clip-rule="evenodd" d="M338.157 -98.0045C237.346 35.6349 278.86 299.512 114.316 330.057C-42.6908 359.202 -114.197 130.9 -210.866 3.91127C-287.959 -97.3604 -358.447 -196.144 -381.556 -321.34C-411.339 -482.698 -493.603 -701.509 -358.214 -794.376C-217.759 -890.719 -55.3971 -655.735 114.753 -661.773C299.761 -668.338 470.057 -934.472 622.214 -829.169C766.8 -729.105 669.75 -485.792 606.029 -321.775C562.235 -209.05 410.995 -194.561 338.157 -98.0045Z" fill="url(#paint2_linear_5050_373)"/>
<path fill-rule="evenodd" clip-rule="evenodd" d="M392.315 110.311C297.907 235.421 336.614 482.329 182.622 510.999C35.6834 538.356 -31.1083 324.755 -121.501 205.974C-193.588 111.248 -259.497 18.846 -281.055 -98.2962C-308.839 -249.275 -385.703 -453.989 -258.96 -540.964C-127.474 -631.194 24.3344 -411.388 183.56 -417.129C356.689 -423.372 516.19 -672.504 658.518 -574.045C793.765 -480.485 702.817 -252.747 643.102 -99.2301C602.061 6.27863 460.526 19.9171 392.315 110.311Z" fill="url(#paint3_linear_5050_373)"/>
</g>
<defs>
<linearGradient id="paint0_linear_5050_373" x1="1786.5" y1="-98" x2="1019" y2="-97.5" gradientUnits="userSpaceOnUse">
<stop stop-color="white" stop-opacity="0.24"/>
<stop offset="1" stop-color="white" stop-opacity="0.4"/>
</linearGradient>
<linearGradient id="paint1_linear_5050_373" x1="2170" y1="-226.5" x2="1160" y2="-226.5" gradientUnits="userSpaceOnUse">
<stop stop-color="white" stop-opacity="0"/>
<stop offset="1" stop-color="white"/>
</linearGradient>
<linearGradient id="paint2_linear_5050_373" x1="225.857" y1="-418.563" x2="400.689" y2="233.92" gradientUnits="userSpaceOnUse">
<stop stop-color="white" stop-opacity="0.24"/>
<stop offset="1" stop-color="white" stop-opacity="0.4"/>
</linearGradient>
<linearGradient id="paint3_linear_5050_373" x1="575.9" y1="589.399" x2="575.9" y2="-496.022" gradientUnits="userSpaceOnUse">
<stop stop-color="white" stop-opacity="0"/>
<stop offset="1" stop-color="white"/>
</linearGradient>
</defs>
</svg>
